<svg width="13" height="13" viewBox="0 0 13 13" fill="none" xmlns="http://www.w3.org/2000/svg">
<path d="M6.79457 3.69318C6.79457 3.57564 6.74787 3.46292 6.66476 3.3798C6.58165 3.29669 6.46892 3.25 6.35138 3.25C6.23385 3.25 6.12112 3.29669 6.03801 3.3798C5.9549 3.46292 5.9082 3.57564 5.9082 3.69318V6.94318C5.9082 7.10273 5.99329 7.24927 6.13157 7.32786L8.19975 8.50968C8.30155 8.5647 8.42084 8.57772 8.53212 8.54595C8.6434 8.51419 8.73784 8.44015 8.79525 8.33968C8.85267 8.2392 8.8685 8.12025 8.83938 8.00826C8.81025 7.89626 8.73847 7.80009 8.63938 7.74032L6.79457 6.68614V3.69318Z" fill="white"/>
<path d="M6.5 0C10.0898 0 13 2.91023 13 6.5C13 10.0898 10.0898 13 6.5 13C2.91023 13 0 10.0898 0 6.5C0 2.91023 2.91023 0 6.5 0ZM0.886364 6.5C0.886364 7.98883 1.4778 9.41668 2.53056 10.4694C3.58332 11.5222 5.01117 12.1136 6.5 12.1136C7.98883 12.1136 9.41668 11.5222 10.4694 10.4694C11.5222 9.41668 12.1136 7.98883 12.1136 6.5C12.1136 5.01117 11.5222 3.58332 10.4694 2.53056C9.41668 1.4778 7.98883 0.886364 6.5 0.886364C5.01117 0.886364 3.58332 1.4778 2.53056 2.53056C1.4778 3.58332 0.886364 5.01117 0.886364 6.5Z" fill="white"/>
</svg>
