<svg width="15" height="16" viewBox="0 0 15 16" fill="none" xmlns="http://www.w3.org/2000/svg">
<path d="M4.44323 1.77947C4.20755 1.77947 3.98152 1.8731 3.81487 2.03975C3.64821 2.2064 3.55459 2.43243 3.55459 2.66812C3.55459 2.9038 3.64821 3.12983 3.81487 3.29649C3.98152 3.46314 4.20755 3.55677 4.44323 3.55677C4.67892 3.55677 4.90495 3.46314 5.0716 3.29649C5.23826 3.12983 5.33188 2.9038 5.33188 2.66812C5.33188 2.43243 5.23826 2.2064 5.0716 2.03975C4.90495 1.8731 4.67892 1.77947 4.44323 1.77947ZM1.92836 1.77947C2.11196 1.25914 2.45243 0.808566 2.90285 0.489858C3.35327 0.17115 3.89146 0 4.44323 0C4.99501 0 5.5332 0.17115 5.98362 0.489858C6.43404 0.808566 6.77451 1.25914 6.95811 1.77947H13.3297C13.5654 1.77947 13.7914 1.8731 13.9581 2.03975C14.1247 2.2064 14.2184 2.43243 14.2184 2.66812C14.2184 2.9038 14.1247 3.12983 13.9581 3.29649C13.7914 3.46314 13.5654 3.55677 13.3297 3.55677H6.95811C6.77451 4.0771 6.43404 4.52767 5.98362 4.84638C5.5332 5.16509 4.99501 5.33624 4.44323 5.33624C3.89146 5.33624 3.35327 5.16509 2.90285 4.84638C2.45243 4.52767 2.11196 4.0771 1.92836 3.55677H0.888647C0.652963 3.55677 0.426932 3.46314 0.260279 3.29649C0.0936252 3.12983 0 2.9038 0 2.66812C0 2.43243 0.0936252 2.2064 0.260279 2.03975C0.426932 1.8731 0.652963 1.77947 0.888647 1.77947H1.92836ZM9.77512 7.11135C9.53943 7.11135 9.3134 7.20498 9.14675 7.37163C8.98009 7.53828 8.88647 7.76432 8.88647 8C8.88647 8.23568 8.98009 8.46171 9.14675 8.62837C9.3134 8.79502 9.53943 8.88865 9.77512 8.88865C10.0108 8.88865 10.2368 8.79502 10.4035 8.62837C10.5701 8.46171 10.6638 8.23568 10.6638 8C10.6638 7.76432 10.5701 7.53828 10.4035 7.37163C10.2368 7.20498 10.0108 7.11135 9.77512 7.11135ZM7.26025 7.11135C7.44384 6.59102 7.78432 6.14045 8.23474 5.82174C8.68516 5.50303 9.22334 5.33188 9.77512 5.33188C10.3269 5.33188 10.8651 5.50303 11.3155 5.82174C11.7659 6.14045 12.1064 6.59102 12.29 7.11135H13.3297C13.5654 7.11135 13.7914 7.20498 13.9581 7.37163C14.1247 7.53828 14.2184 7.76432 14.2184 8C14.2184 8.23568 14.1247 8.46171 13.9581 8.62837C13.7914 8.79502 13.5654 8.88865 13.3297 8.88865H12.29C12.1064 9.40898 11.7659 9.85955 11.3155 10.1783C10.8651 10.497 10.3269 10.6681 9.77512 10.6681C9.22334 10.6681 8.68516 10.497 8.23474 10.1783C7.78432 9.85955 7.44384 9.40898 7.26025 8.88865H0.888647C0.652963 8.88865 0.426932 8.79502 0.260279 8.62837C0.0936252 8.46171 0 8.23568 0 8C0 7.76432 0.0936252 7.53828 0.260279 7.37163C0.426932 7.20498 0.652963 7.11135 0.888647 7.11135H7.26025ZM4.44323 12.4432C4.20755 12.4432 3.98152 12.5369 3.81487 12.7035C3.64821 12.8702 3.55459 13.0962 3.55459 13.3319C3.55459 13.5676 3.64821 13.7936 3.81487 13.9603C3.98152 14.1269 4.20755 14.2205 4.44323 14.2205C4.67892 14.2205 4.90495 14.1269 5.0716 13.9603C5.23826 13.7936 5.33188 13.5676 5.33188 13.3319C5.33188 13.0962 5.23826 12.8702 5.0716 12.7035C4.90495 12.5369 4.67892 12.4432 4.44323 12.4432ZM1.92836 12.4432C2.11196 11.9229 2.45243 11.4723 2.90285 11.1536C3.35327 10.8349 3.89146 10.6638 4.44323 10.6638C4.99501 10.6638 5.5332 10.8349 5.98362 11.1536C6.43404 11.4723 6.77451 11.9229 6.95811 12.4432H13.3297C13.5654 12.4432 13.7914 12.5369 13.9581 12.7035C14.1247 12.8702 14.2184 13.0962 14.2184 13.3319C14.2184 13.5676 14.1247 13.7936 13.9581 13.9603C13.7914 14.1269 13.5654 14.2205 13.3297 14.2205H6.95811C6.77451 14.7409 6.43404 15.1914 5.98362 15.5101C5.5332 15.8288 4.99501 16 4.44323 16C3.89146 16 3.35327 15.8288 2.90285 15.5101C2.45243 15.1914 2.11196 14.7409 1.92836 14.2205H0.888647C0.652963 14.2205 0.426932 14.1269 0.260279 13.9603C0.0936252 13.7936 0 13.5676 0 13.3319C0 13.0962 0.0936252 12.8702 0.260279 12.7035C0.426932 12.5369 0.652963 12.4432 0.888647 12.4432H1.92836Z" fill="white"/>
</svg>
