<svg width="22" height="22" viewBox="0 0 22 22" fill="none" xmlns="http://www.w3.org/2000/svg">
<path d="M20.2478 11.2255C20.252 11.0741 20.252 10.9227 20.2478 10.7714L21.816 8.81221C21.8982 8.70935 21.9551 8.58861 21.9821 8.45972C22.0091 8.33083 22.0055 8.19739 21.9715 8.07017C21.714 7.10398 21.3294 6.17621 20.828 5.31113C20.7622 5.19795 20.671 5.10167 20.5615 5.02996C20.452 4.95825 20.3273 4.91308 20.1973 4.89806L17.7042 4.62058C17.6005 4.51127 17.4954 4.40616 17.3889 4.30526L17.0946 1.80584C17.0794 1.67573 17.0341 1.55096 16.9622 1.44147C16.8903 1.33198 16.7938 1.2408 16.6805 1.1752C15.8154 0.674106 14.8876 0.290258 13.9214 0.0337477C13.7942 -0.000243498 13.6608 -0.00387576 13.5319 0.0231436C13.403 0.0501629 13.2822 0.107078 13.1794 0.189305L11.2255 1.74908H10.7714L8.81221 0.18405C8.70935 0.101823 8.58861 0.0449077 8.45972 0.0178884C8.33083 -0.00913099 8.19739 -0.00549893 8.07017 0.0284922C7.10398 0.286031 6.17621 0.670568 5.31113 1.17205C5.19795 1.23777 5.10167 1.329 5.02996 1.43848C4.95825 1.54796 4.91308 1.67267 4.89806 1.80268L4.62058 4.30001C4.51127 4.40441 4.40616 4.50952 4.30526 4.61533L1.80584 4.90227C1.67573 4.9174 1.55096 4.96273 1.44147 5.03463C1.33198 5.10652 1.2408 5.20301 1.1752 5.31638C0.674209 6.18158 0.290033 7.10933 0.0326966 8.07542C-0.00115084 8.20273 -0.00461273 8.33621 0.0225899 8.4651C0.0497925 8.594 0.106899 8.7147 0.189305 8.81747L1.74908 10.7714V11.2255L0.18405 13.1846C0.101823 13.2875 0.0449077 13.4082 0.0178884 13.5371C-0.00913099 13.666 -0.00549893 13.7995 0.0284922 13.9267C0.286031 14.8929 0.670568 15.8206 1.17205 16.6857C1.23777 16.7989 1.329 16.8952 1.43848 16.9669C1.54796 17.0386 1.67267 17.0838 1.80268 17.0988L4.2958 17.3763C4.40021 17.4856 4.50531 17.5907 4.61112 17.6916L4.90227 20.191C4.9174 20.3211 4.96273 20.4459 5.03463 20.5554C5.10652 20.6649 5.20301 20.756 5.31638 20.8216C6.18158 21.3226 7.10933 21.7068 8.07542 21.9641C8.20273 21.998 8.33621 22.0015 8.4651 21.9743C8.594 21.9471 8.7147 21.8899 8.81747 21.8075L10.7714 20.2478C10.9227 20.252 11.0741 20.252 11.2255 20.2478L13.1846 21.816C13.2875 21.8982 13.4082 21.9551 13.5371 21.9821C13.666 22.0091 13.7995 22.0055 13.9267 21.9715C14.893 21.7144 15.8209 21.3299 16.6857 20.828C16.7989 20.7622 16.8952 20.671 16.9669 20.5615C17.0386 20.452 17.0838 20.3273 17.0988 20.1973L17.3763 17.7042C17.4856 17.6005 17.5907 17.4954 17.6916 17.3889L20.191 17.0946C20.3211 17.0794 20.4459 17.0341 20.5554 16.9622C20.6649 16.8903 20.756 16.7938 20.8216 16.6805C21.3226 15.8153 21.7068 14.8875 21.9641 13.9214C21.998 13.7941 22.0015 13.6606 21.9743 13.5317C21.9471 13.4028 21.8899 13.2822 21.8075 13.1794L20.2478 11.2255ZM10.9984 15.2027C10.1669 15.2027 9.35405 14.9561 8.66267 14.4941C7.97128 14.0322 7.43242 13.3755 7.11421 12.6073C6.796 11.8391 6.71274 10.9938 6.87496 10.1782C7.03718 9.36267 7.4376 8.61355 8.02557 8.02557C8.61355 7.4376 9.36267 7.03718 10.1782 6.87496C10.9938 6.71274 11.8391 6.796 12.6073 7.11421C13.3755 7.43242 14.0322 7.97128 14.4941 8.66267C14.9561 9.35405 15.2027 10.1669 15.2027 10.9984C15.2027 12.1135 14.7597 13.1828 13.9713 13.9713C13.1828 14.7597 12.1135 15.2027 10.9984 15.2027Z" fill="#AEAFB2"/>
</svg>
