<svg width="16" height="18" viewBox="0 0 16 18" fill="none" xmlns="http://www.w3.org/2000/svg">
<path d="M14.6667 0H4C3.64638 0 3.30724 0.145879 3.05719 0.405544C2.80714 0.66521 2.66667 1.01739 2.66667 1.38462V3.46154H1.33333C0.979711 3.46154 0.640573 3.60742 0.390524 3.86708C0.140476 4.12675 0 4.47893 0 4.84615V13.1538C0 13.5211 0.140476 13.8733 0.390524 14.1329C0.640573 14.3926 0.979711 14.5385 1.33333 14.5385H2.66667V16.6154C2.66667 16.9826 2.80714 17.3348 3.05719 17.5945C3.30724 17.8541 3.64638 18 4 18H14.6667C15.0203 18 15.3594 17.8541 15.6095 17.5945C15.8595 17.3348 16 16.9826 16 16.6154V1.38462C16 1.01739 15.8595 0.66521 15.6095 0.405544C15.3594 0.145879 15.0203 0 14.6667 0ZM4 11.7692C3.87328 11.7693 3.74917 11.7318 3.64222 11.6613C3.53527 11.5907 3.44989 11.4899 3.39611 11.3708C3.34233 11.2516 3.32236 11.119 3.33854 10.9885C3.35473 10.858 3.4064 10.735 3.4875 10.6338L4.79917 9L3.4875 7.36615C3.37434 7.225 3.31981 7.04295 3.33591 6.86005C3.35201 6.67715 3.43741 6.50838 3.57333 6.39087C3.70926 6.27335 3.88457 6.21673 4.06069 6.23344C4.23682 6.25016 4.39934 6.33885 4.5125 6.48L5.66667 7.91827L6.82083 6.48C6.87686 6.41011 6.9456 6.35236 7.02312 6.31006C7.10064 6.26776 7.18543 6.24172 7.27264 6.23344C7.35985 6.22517 7.44778 6.23481 7.5314 6.26182C7.61502 6.28883 7.6927 6.33268 7.76 6.39087C7.8273 6.44905 7.88291 6.52043 7.92365 6.60094C7.96438 6.68144 7.98945 6.76949 7.99742 6.86005C8.00539 6.95061 7.99611 7.04192 7.9701 7.12876C7.94409 7.2156 7.90186 7.29626 7.84583 7.36615L6.53417 9L7.84583 10.6338C7.95899 10.775 8.01352 10.957 7.99742 11.14C7.98133 11.3229 7.89592 11.4916 7.76 11.6091C7.62408 11.7266 7.44877 11.7833 7.27264 11.7666C7.09651 11.7498 6.93399 11.6612 6.82083 11.52L5.66667 10.0817L4.5125 11.52C4.44991 11.598 4.37155 11.6608 4.28298 11.7039C4.19441 11.747 4.0978 11.7693 4 11.7692ZM8.66667 16.6154H4V14.5385H8.66667V16.6154ZM8.66667 3.46154H4V1.38462H8.66667V3.46154ZM14.6667 16.6154H10V14.5385C10.3536 14.5385 10.6928 14.3926 10.9428 14.1329C11.1929 13.8733 11.3333 13.5211 11.3333 13.1538V12.4615H14.6667V16.6154ZM14.6667 11.0769H11.3333V6.92308H14.6667V11.0769ZM14.6667 5.53846H11.3333V4.84615C11.3333 4.47893 11.1929 4.12675 10.9428 3.86708C10.6928 3.60742 10.3536 3.46154 10 3.46154V1.38462H14.6667V5.53846Z" fill="white"/>
</svg>
