<svg width="9" height="6" viewBox="0 0 9 6" fill="none" xmlns="http://www.w3.org/2000/svg">
<path d="M5.08389 5.54195L8.80646 1.28769C9.24578 0.785504 8.88873 7.16228e-06 8.22199 7.22057e-06L0.776853 7.87145e-06C0.627636 -0.000119908 0.481545 0.0427659 0.356075 0.12353C0.230605 0.204294 0.131074 0.319513 0.0694022 0.455388C0.00773003 0.591264 -0.0134701 0.742037 0.00834231 0.88965C0.0301548 1.03726 0.0940538 1.17546 0.192387 1.28769L3.91496 5.54117C3.98781 5.62454 4.07766 5.69136 4.17846 5.73714C4.27927 5.78292 4.38871 5.80661 4.49942 5.80661C4.61014 5.80661 4.71957 5.78292 4.82038 5.73714C4.92119 5.69136 5.01103 5.62532 5.08389 5.54195Z" fill="white"/>
</svg>
