<svg width="18" height="18" viewBox="0 0 18 18" fill="none" xmlns="http://www.w3.org/2000/svg">
<path d="M8.94039 11.825C9.13852 11.825 9.33665 11.725 9.43571 11.625L12.7048 8.32501C13.002 8.02501 13.002 7.52501 12.7048 7.22501C12.4076 6.92501 11.9123 6.92501 11.6151 7.22501L8.94039 9.92501L6.26565 7.22501C5.96846 6.92501 5.47314 6.92501 5.17594 7.22501C4.87875 7.52501 4.87875 8.02501 5.17594 8.32501L8.34601 11.525C8.54414 11.725 8.74226 11.825 8.94039 11.825Z" fill="white"/>
<path d="M17.3316 9C17.3316 13.6989 13.5593 17.5 8.9158 17.5C4.2723 17.5 0.5 13.6989 0.5 9C0.5 4.30114 4.2723 0.5 8.9158 0.5C13.5593 0.5 17.3316 4.30114 17.3316 9Z" stroke="white"/>
</svg>
